<?xml version="1.0" encoding="utf-8"?>
<!-- Generator: Adobe Illustrator 27.7.0, SVG Export Plug-In . SVG Version: 6.00 Build 0)  -->
<svg version="1.1" id="Layer_1" xmlns="http://www.w3.org/2000/svg" xmlns:xlink="http://www.w3.org/1999/xlink" x="0px" y="0px"
	 viewBox="0 0 103.1 32.1" style="enable-background:new 0 0 103.1 32.1;" xml:space="preserve">
<path d="M17.7,0.7v11.9H8.3V0.7H0v31h8.3v-12h9.4v12H26v-31L17.7,0.7z M39.7,32.1c7.2,0,11.5-3.7,11.5-9.7c0-4.3-1.9-6.9-6.7-8.9
	l-4.2-1.8c-2-0.9-2.7-1.5-2.7-2.6c0-1.4,1.4-2.3,3.5-2.3c3.3,0,6,1.6,6.8,1.6c0.2,0,0.4,0,0.6-0.2c0.2-0.1,0.3-0.3,0.3-0.5l1.9-5.3
	c-3-1.6-6.4-2.4-9.8-2.4C34,0,29.5,3.7,29.5,9.1c0,4.2,1.9,7,6.2,8.9l4.9,2.2c1.6,0.7,2.3,1.5,2.3,2.6c0,1.7-1.2,2.5-3.7,2.5
	c-3.8,0-7.1-1.7-7.8-1.7c-0.2,0-0.5,0.1-0.6,0.2c-0.2,0.1-0.3,0.3-0.4,0.5l-1.5,5.5C32.5,31.4,36.1,32.1,39.7,32.1z M75.2,31.6v-6
	c0-0.8-0.3-1.1-1.1-1.1H63.6V0.7h-8.3v31h19.9V31.6z M89.8,32.1c8.6,0,12.9-4.5,12.9-13.6V0.7h-8.3v17.2c0,5.1-1.3,7-4.6,7
	s-4.6-1.9-4.6-7V0.7h-8.3v17.9C76.8,27.6,81.1,32.2,89.8,32.1z"/>
</svg>
